<?xml version="1.0" encoding="utf-8"?>
<!-- Generator: Adobe Illustrator 15.0.0, SVG Export Plug-In . SVG Version: 6.00 Build 0)  -->
<!DOCTYPE svg PUBLIC "-//W3C//DTD SVG 1.1//EN" "http://www.w3.org/Graphics/SVG/1.1/DTD/svg11.dtd">
<svg version="1.1" id="Calque_1" xmlns="http://www.w3.org/2000/svg" xmlns:xlink="http://www.w3.org/1999/xlink" x="0px" y="0px"
	 width="433.666px" height="146.269px" viewBox="0 0 433.666 146.269" enable-background="new 0 0 433.666 146.269"
	 xml:space="preserve">
<rect x="1.558" y="1" fill="#4C5D6B" width="429.692" height="95.154"/>
<g>
	<rect x="1.556" y="95.991" fill="#97BF0D" width="86.015" height="14.257"/>
	<rect x="87.477" y="95.991" fill="#E41270" width="86.014" height="14.257"/>
	<rect x="173.397" y="95.991" fill="#39A9DC" width="86.015" height="14.257"/>
	<rect x="259.318" y="95.991" fill="#F29400" width="86.014" height="14.257"/>
	<rect x="345.237" y="95.991" fill="#93117E" width="86.014" height="14.257"/>
</g>
<g>
	<path fill="#FFFFFF" d="M26.028,22.774H64.01v7.979H35.264v13.818h26.604v7.538H35.264v15.443h29.264v7.98h-38.5V22.774z"/>
	<path fill="#FFFFFF" d="M93.421,22.774h23.277c3.743,0,6.798,0.543,9.163,1.626c2.364,1.084,4.187,2.438,5.468,4.062
		c1.281,1.626,2.155,3.399,2.624,5.321c0.468,1.921,0.702,3.694,0.702,5.32s-0.234,3.388-0.702,5.282
		c-0.469,1.897-1.343,3.658-2.624,5.284c-1.281,1.625-3.104,2.968-5.468,4.027c-2.365,1.06-5.42,1.589-9.163,1.589h-14.04v20.247
		h-9.237V22.774z M102.658,47.75h13.521c1.035,0,2.095-0.146,3.179-0.443c1.083-0.295,2.081-0.774,2.993-1.439
		c0.909-0.665,1.648-1.552,2.217-2.66c0.564-1.109,0.85-2.5,0.85-4.176c0-1.725-0.247-3.152-0.739-4.286
		c-0.492-1.133-1.157-2.032-1.994-2.697c-0.839-0.665-1.8-1.119-2.883-1.366c-1.084-0.245-2.241-0.369-3.474-0.369h-13.67V47.75z"/>
	<path fill="#FFFFFF" d="M169.608,57.948c0,2.021,0.344,3.744,1.034,5.173c0.688,1.429,1.649,2.599,2.882,3.51
		c1.23,0.912,2.646,1.577,4.249,1.995c1.601,0.419,3.337,0.628,5.21,0.628c2.02,0,3.743-0.232,5.173-0.702
		c1.428-0.468,2.586-1.07,3.473-1.811c0.887-0.738,1.526-1.589,1.922-2.549c0.395-0.961,0.591-1.935,0.591-2.919
		c0-2.021-0.455-3.512-1.366-4.472c-0.912-0.961-1.909-1.638-2.992-2.031c-1.873-0.689-4.053-1.343-6.54-1.958
		c-2.488-0.616-5.555-1.416-9.2-2.402c-2.267-0.591-4.151-1.367-5.653-2.327c-1.503-0.961-2.696-2.032-3.584-3.215
		c-0.887-1.183-1.515-2.438-1.884-3.769c-0.37-1.33-0.555-2.686-0.555-4.064c0-2.66,0.555-4.963,1.663-6.909
		c1.107-1.945,2.572-3.559,4.396-4.84c1.822-1.281,3.893-2.229,6.207-2.846c2.315-0.615,4.656-0.924,7.021-0.924
		c2.759,0,5.356,0.357,7.796,1.071c2.438,0.715,4.582,1.786,6.429,3.214c1.848,1.431,3.312,3.19,4.397,5.284
		c1.083,2.094,1.625,4.521,1.625,7.278h-9.236c-0.247-3.399-1.404-5.801-3.474-7.205c-2.068-1.403-4.705-2.105-7.906-2.105
		c-1.085,0-2.193,0.11-3.326,0.332c-1.134,0.223-2.168,0.593-3.104,1.108c-0.938,0.518-1.713,1.22-2.327,2.106
		c-0.617,0.887-0.925,1.994-0.925,3.324c0,1.873,0.578,3.338,1.736,4.396c1.157,1.061,2.672,1.86,4.545,2.402
		c0.196,0.05,0.973,0.259,2.327,0.628c1.354,0.368,2.87,0.774,4.545,1.219c1.674,0.442,3.312,0.876,4.914,1.294
		c1.602,0.419,2.746,0.728,3.438,0.924c1.724,0.542,3.226,1.281,4.508,2.217c1.28,0.937,2.352,2.008,3.214,3.214
		c0.861,1.208,1.502,2.501,1.922,3.881c0.418,1.38,0.628,2.76,0.628,4.138c0,2.956-0.604,5.48-1.811,7.575
		c-1.208,2.094-2.797,3.806-4.768,5.136s-4.212,2.303-6.725,2.919c-2.512,0.615-5.074,0.923-7.686,0.923
		c-3.006,0-5.838-0.369-8.498-1.107c-2.659-0.738-4.977-1.871-6.945-3.398c-1.973-1.527-3.547-3.485-4.729-5.875
		c-1.183-2.389-1.799-5.21-1.848-8.461H169.608L169.608,57.948z"/>
	<path fill="#FFFFFF" d="M246.014,54.844l-19.804-32.069h10.715l13.968,23.646l13.743-23.646h10.347l-19.73,32.069v20.691h-9.236
		V54.844H246.014z"/>
	<path fill="#FFFFFF" d="M300.994,22.774h9.237v44.78h26.824v7.98h-36.062L300.994,22.774L300.994,22.774z"/>
	<path fill="#FFFFFF" d="M378.362,22.774h9.828l20.321,52.762h-9.902l-4.951-13.967h-21.06l-4.951,13.967h-9.533L378.362,22.774z
		 M375.111,54.549h16.109l-7.906-22.687h-0.222L375.111,54.549z"/>
</g>
<g>
	<path fill="#4C5D6B" d="M1.001,126.076c0.908-0.173,2.097-0.302,3.61-0.302c1.858,0,3.222,0.432,4.087,1.21
		c0.8,0.691,1.297,1.752,1.297,3.049c0,1.319-0.389,2.356-1.146,3.113c-0.994,1.06-2.615,1.601-4.453,1.601
		c-0.562,0-1.081-0.021-1.515-0.13v5.838H1L1.001,126.076L1.001,126.076z M2.882,133.082c0.411,0.108,0.951,0.151,1.558,0.151
		c2.292,0,3.653-1.124,3.653-3.093c0-1.945-1.361-2.876-3.438-2.876c-0.821,0-1.448,0.088-1.772,0.151L2.882,133.082L2.882,133.082z
		"/>
	<path fill="#4C5D6B" d="M16.699,140.694c-2.812,0-5.018-2.076-5.018-5.384c0-3.504,2.313-5.559,5.189-5.559
		c3.006,0,5.038,2.186,5.038,5.362c0,3.893-2.703,5.579-5.189,5.579L16.699,140.694L16.699,140.694z M16.763,139.265
		c1.816,0,3.18-1.707,3.18-4.086c0-1.772-0.888-4-3.135-4c-2.229,0-3.2,2.075-3.2,4.064c0,2.292,1.297,4.021,3.135,4.021
		L16.763,139.265L16.763,139.265z M17.413,125.623l2.075,3.092h-1.427l-1.255-2.033h-0.044l-1.254,2.033h-1.384l2.032-3.092H17.413z
		"/>
	<path fill="#4C5D6B" d="M24.311,125.104h1.902v15.352h-1.902V125.104z"/>
	<path fill="#4C5D6B" d="M30.451,135.547c0.044,2.573,1.665,3.633,3.568,3.633c1.36,0,2.204-0.237,2.896-0.52l0.347,1.341
		c-0.671,0.303-1.838,0.67-3.503,0.67c-3.199,0-5.146-2.141-5.146-5.274c0-3.18,1.882-5.665,4.93-5.665
		c3.417,0,4.303,3.006,4.303,4.93c0,0.39-0.021,0.692-0.063,0.908L30.451,135.547z M36.008,134.185
		c0.022-1.189-0.497-3.093-2.615-3.093c-1.945,0-2.769,1.773-2.92,3.093H36.008z"/>
	<path fill="#4C5D6B" d="M53.825,125.104v12.647c0,0.93,0.021,1.989,0.087,2.703h-1.709l-0.086-1.816h-0.043
		c-0.584,1.168-1.838,2.056-3.546,2.056c-2.53,0-4.498-2.142-4.498-5.319c-0.021-3.503,2.162-5.622,4.691-5.622
		c1.621,0,2.702,0.757,3.156,1.579h0.045v-6.228H53.825L53.825,125.104z M51.923,134.25c0-0.26-0.021-0.562-0.087-0.822
		c-0.281-1.188-1.317-2.184-2.746-2.184c-1.968,0-3.135,1.729-3.135,4.021c0,2.142,1.06,3.894,3.092,3.894
		c1.275,0,2.443-0.865,2.789-2.271c0.065-0.26,0.087-0.52,0.087-0.821V134.25z"/>
	<path fill="#4C5D6B" d="M58.064,135.547c0.044,2.573,1.665,3.633,3.566,3.633c1.362,0,2.206-0.237,2.897-0.52l0.347,1.341
		c-0.671,0.303-1.838,0.67-3.503,0.67c-3.2,0-5.146-2.141-5.146-5.274c0-3.18,1.882-5.665,4.93-5.665
		c3.417,0,4.303,3.006,4.303,4.93c0,0.39-0.021,0.692-0.063,0.908L58.064,135.547z M63.62,134.185
		c0.022-1.189-0.497-3.093-2.616-3.093c-1.944,0-2.768,1.773-2.919,3.093H63.62z"/>
	<path fill="#4C5D6B" d="M74.351,127.483h-4.434v-1.602h10.789v1.602h-4.454v12.973h-1.901V127.483L74.351,127.483z"/>
	<path fill="#4C5D6B" d="M82.117,125.104h1.903v6.529h0.043c0.303-0.541,0.777-1.038,1.361-1.341
		c0.562-0.346,1.232-0.541,1.945-0.541c1.406,0,3.654,0.865,3.654,4.477v6.228h-1.901v-6.011c0-1.708-0.627-3.113-2.422-3.113
		c-1.232,0-2.184,0.864-2.552,1.902c-0.107,0.26-0.129,0.541-0.129,0.908v6.312h-1.903V125.104z"/>
	<path fill="#4C5D6B" d="M95.199,135.547c0.044,2.573,1.665,3.633,3.568,3.633c1.36,0,2.204-0.237,2.896-0.52l0.347,1.341
		c-0.671,0.303-1.838,0.67-3.503,0.67c-3.2,0-5.146-2.141-5.146-5.274c0-3.18,1.882-5.665,4.93-5.665
		c3.417,0,4.303,3.006,4.303,4.93c0,0.39-0.021,0.692-0.063,0.908L95.199,135.547z M100.756,134.185
		c0.022-1.189-0.497-3.093-2.616-3.093c-1.944,0-2.768,1.773-2.919,3.093H100.756z M101.21,125.623l-2.638,3.092h-1.34l1.901-3.092
		H101.21z"/>
	<path fill="#4C5D6B" d="M104.972,133.255c0-1.231-0.021-2.292-0.086-3.265h1.665l0.086,2.054h0.065
		c0.476-1.405,1.643-2.292,2.919-2.292c0.194,0,0.346,0.022,0.519,0.065v1.771c-0.216-0.021-0.41-0.043-0.67-0.043
		c-1.341,0-2.292,1.018-2.552,2.422c-0.043,0.281-0.063,0.584-0.063,0.908v5.578h-1.903L104.972,133.255z"/>
	<path fill="#4C5D6B" d="M119.269,137.947c0,0.908,0.044,1.794,0.15,2.508h-1.708l-0.173-1.319h-0.063
		c-0.562,0.822-1.709,1.559-3.2,1.559c-2.119,0-3.2-1.492-3.2-3.006c0-2.529,2.249-3.913,6.292-3.893v-0.217
		c0-0.864-0.238-2.443-2.379-2.421c-0.994,0-2.011,0.28-2.745,0.778l-0.433-1.276c0.863-0.54,2.141-0.908,3.459-0.908
		c3.222,0,4,2.186,4,4.281V137.947z M117.409,135.114c-2.075-0.043-4.433,0.324-4.433,2.356c0,1.254,0.821,1.815,1.772,1.815
		c1.384,0,2.271-0.864,2.573-1.751c0.063-0.194,0.086-0.411,0.086-0.605L117.409,135.114L117.409,135.114z"/>
	<path fill="#4C5D6B" d="M122.319,133.406c0-1.341-0.021-2.422-0.086-3.416h1.708l0.107,1.795h0.043
		c0.757-1.298,2.012-2.033,3.697-2.033c2.551,0,4.454,2.142,4.454,5.319c0,3.762-2.313,5.622-4.757,5.622
		c-1.405,0-2.596-0.605-3.223-1.645h-0.043v5.688h-1.902L122.319,133.406L122.319,133.406z M124.221,136.195
		c0,0.26,0.021,0.541,0.087,0.777c0.323,1.319,1.491,2.229,2.832,2.229c2.012,0,3.179-1.645,3.179-4.043
		c0-2.098-1.081-3.894-3.092-3.894c-1.298,0-2.529,0.908-2.897,2.336c-0.043,0.26-0.107,0.54-0.107,0.777L124.221,136.195
		L124.221,136.195z"/>
	<path fill="#4C5D6B" d="M135.53,128.066c-0.713,0-1.189-0.562-1.189-1.232s0.498-1.21,1.232-1.21c0.735,0,1.211,0.54,1.211,1.21
		c0,0.671-0.476,1.232-1.232,1.232H135.53z M134.622,140.455V129.99h1.903v10.465H134.622z"/>
	<path fill="#4C5D6B" d="M140.762,135.547c0.044,2.573,1.665,3.633,3.567,3.633c1.362,0,2.206-0.237,2.897-0.52l0.347,1.341
		c-0.671,0.303-1.838,0.67-3.503,0.67c-3.2,0-5.146-2.141-5.146-5.274c0-3.18,1.882-5.665,4.931-5.665
		c3.417,0,4.303,3.006,4.303,4.93c0,0.39-0.021,0.692-0.064,0.908L140.762,135.547z M146.319,134.185
		c0.021-1.189-0.497-3.093-2.616-3.093c-1.945,0-2.768,1.773-2.919,3.093H146.319z"/>
	<path fill="#4C5D6B" d="M165.326,140.001c-0.671,0.346-2.076,0.692-3.849,0.692c-4.108,0-7.18-2.596-7.18-7.396
		c0-4.583,3.093-7.652,7.611-7.652c1.794,0,2.962,0.389,3.459,0.647l-0.476,1.535c-0.692-0.346-1.708-0.605-2.92-0.605
		c-3.415,0-5.687,2.185-5.687,6.012c0,3.589,2.054,5.858,5.578,5.858c1.168,0,2.335-0.236,3.092-0.604L165.326,140.001z"/>
	<path fill="#4C5D6B" d="M171.621,140.694c-2.811,0-5.017-2.076-5.017-5.384c0-3.504,2.312-5.559,5.188-5.559
		c3.006,0,5.038,2.186,5.038,5.362c0,3.893-2.703,5.579-5.188,5.579L171.621,140.694L171.621,140.694z M171.686,139.265
		c1.815,0,3.179-1.707,3.179-4.086c0-1.772-0.887-4-3.135-4c-2.229,0-3.2,2.075-3.2,4.064c0,2.292,1.297,4.021,3.135,4.021
		L171.686,139.265L171.686,139.265z"/>
	<path fill="#4C5D6B" d="M179.233,132.822c0-1.104-0.043-1.967-0.086-2.832h1.665l0.086,1.687h0.064
		c0.583-0.995,1.558-1.925,3.309-1.925c1.404,0,2.485,0.865,2.939,2.099h0.043c0.325-0.605,0.757-1.038,1.189-1.362
		c0.627-0.477,1.298-0.735,2.292-0.735c1.404,0,3.46,0.908,3.46,4.541v6.162h-1.86v-5.925c0-2.032-0.756-3.221-2.27-3.221
		c-1.104,0-1.925,0.8-2.271,1.708c-0.087,0.279-0.15,0.627-0.15,0.95v6.486h-1.859v-6.271c0-1.688-0.735-2.875-2.184-2.875
		c-1.168,0-2.056,0.95-2.357,1.901c-0.107,0.281-0.151,0.605-0.151,0.93v6.313h-1.858V132.822L179.233,132.822z"/>
	<path fill="#4C5D6B" d="M197.267,133.406c0-1.341-0.021-2.422-0.087-3.416h1.708l0.108,1.795h0.043
		c0.757-1.298,2.011-2.033,3.697-2.033c2.551,0,4.454,2.142,4.454,5.319c0,3.762-2.313,5.622-4.757,5.622
		c-1.405,0-2.596-0.605-3.223-1.645h-0.043v5.688h-1.902L197.267,133.406L197.267,133.406z M199.17,136.195
		c0,0.26,0.021,0.541,0.086,0.777c0.324,1.319,1.492,2.229,2.833,2.229c2.012,0,3.179-1.645,3.179-4.043
		c0-2.098-1.081-3.894-3.093-3.894c-1.297,0-2.528,0.908-2.896,2.336c-0.043,0.26-0.107,0.54-0.107,0.777L199.17,136.195
		L199.17,136.195z"/>
	<path fill="#4C5D6B" d="M213.851,140.694c-2.812,0-5.018-2.076-5.018-5.384c0-3.504,2.313-5.559,5.189-5.559
		c3.006,0,5.038,2.186,5.038,5.362c0,3.893-2.703,5.579-5.189,5.579L213.851,140.694L213.851,140.694z M213.915,139.265
		c1.816,0,3.179-1.707,3.179-4.086c0-1.772-0.887-4-3.135-4c-2.228,0-3.2,2.075-3.2,4.064c0,2.292,1.297,4.021,3.136,4.021
		L213.915,139.265L213.915,139.265z"/>
	<path fill="#4C5D6B" d="M221.484,133.255c0-1.231-0.021-2.292-0.086-3.265h1.665l0.086,2.054h0.064
		c0.477-1.405,1.644-2.292,2.919-2.292c0.194,0,0.347,0.022,0.52,0.065v1.771c-0.216-0.021-0.411-0.043-0.67-0.043
		c-1.341,0-2.292,1.018-2.553,2.422c-0.043,0.281-0.063,0.584-0.063,0.908v5.578h-1.903L221.484,133.255z"/>
	<path fill="#4C5D6B" d="M231.343,127.483v2.508h2.726v1.448h-2.726v5.644c0,1.298,0.368,2.032,1.428,2.032
		c0.52,0,0.821-0.043,1.104-0.13l0.086,1.448c-0.367,0.131-0.951,0.261-1.687,0.261c-0.888,0-1.601-0.304-2.055-0.801
		c-0.52-0.583-0.734-1.514-0.734-2.746v-5.708h-1.621v-1.448h1.621v-1.925L231.343,127.483z"/>
	<path fill="#4C5D6B" d="M237.162,135.547c0.044,2.573,1.665,3.633,3.568,3.633c1.36,0,2.205-0.237,2.896-0.52l0.347,1.341
		c-0.671,0.303-1.838,0.67-3.503,0.67c-3.199,0-5.146-2.141-5.146-5.274c0-3.18,1.882-5.665,4.93-5.665
		c3.417,0,4.303,3.006,4.303,4.93c0,0.39-0.021,0.692-0.063,0.908L237.162,135.547z M242.719,134.185
		c0.022-1.189-0.497-3.093-2.615-3.093c-1.945,0-2.769,1.773-2.919,3.093H242.719z"/>
	<path fill="#4C5D6B" d="M246.914,132.822c0-1.104-0.043-1.967-0.086-2.832h1.665l0.086,1.687h0.065
		c0.583-0.995,1.557-1.925,3.308-1.925c1.405,0,2.486,0.865,2.94,2.099h0.043c0.324-0.605,0.757-1.038,1.188-1.362
		c0.627-0.477,1.298-0.735,2.292-0.735c1.405,0,3.46,0.908,3.46,4.541v6.162h-1.859v-5.925c0-2.032-0.757-3.221-2.271-3.221
		c-1.103,0-1.925,0.8-2.271,1.708c-0.088,0.279-0.151,0.627-0.151,0.95v6.486h-1.859v-6.271c0-1.688-0.734-2.875-2.184-2.875
		c-1.168,0-2.055,0.95-2.357,1.901c-0.106,0.281-0.15,0.605-0.15,0.93v6.313h-1.859V132.822L246.914,132.822z"/>
	<path fill="#4C5D6B" d="M266.029,135.547c0.044,2.573,1.665,3.633,3.567,3.633c1.361,0,2.205-0.237,2.896-0.52l0.347,1.341
		c-0.671,0.303-1.838,0.67-3.503,0.67c-3.2,0-5.146-2.141-5.146-5.274c0-3.18,1.882-5.665,4.93-5.665
		c3.417,0,4.303,3.006,4.303,4.93c0,0.39-0.021,0.692-0.063,0.908L266.029,135.547z M271.586,134.185
		c0.022-1.189-0.497-3.093-2.616-3.093c-1.944,0-2.768,1.773-2.919,3.093H271.586z"/>
	<path fill="#4C5D6B" d="M275.781,132.822c0-1.104-0.021-1.967-0.086-2.832h1.687l0.107,1.708h0.044
		c0.519-0.974,1.729-1.946,3.459-1.946c1.449,0,3.697,0.865,3.697,4.454v6.249h-1.902v-6.032c0-1.687-0.627-3.112-2.422-3.112
		c-1.232,0-2.205,0.886-2.552,1.944c-0.086,0.238-0.129,0.584-0.129,0.888v6.312h-1.903V132.822z"/>
	<path fill="#4C5D6B" d="M289.99,127.483v2.508h2.725v1.448h-2.725v5.644c0,1.298,0.368,2.032,1.427,2.032
		c0.521,0,0.822-0.043,1.104-0.13l0.086,1.448c-0.367,0.131-0.951,0.261-1.688,0.261c-0.887,0-1.6-0.304-2.054-0.801
		c-0.52-0.583-0.735-1.514-0.735-2.746v-5.708h-1.62v-1.448h1.62v-1.925L289.99,127.483z"/>
	<path fill="#4C5D6B" d="M302.229,137.947c0,0.908,0.043,1.794,0.15,2.508h-1.708l-0.173-1.319h-0.063
		c-0.562,0.822-1.709,1.559-3.2,1.559c-2.119,0-3.2-1.492-3.2-3.006c0-2.529,2.249-3.913,6.292-3.893v-0.217
		c0-0.864-0.238-2.443-2.379-2.421c-0.994,0-2.011,0.28-2.745,0.778l-0.433-1.276c0.864-0.54,2.141-0.908,3.459-0.908
		c3.222,0,4,2.186,4,4.281V137.947L302.229,137.947z M300.369,135.114c-2.075-0.043-4.433,0.324-4.433,2.356
		c0,1.254,0.822,1.815,1.772,1.815c1.385,0,2.271-0.864,2.573-1.751c0.064-0.194,0.086-0.411,0.086-0.605L300.369,135.114
		L300.369,135.114z"/>
	<path fill="#4C5D6B" d="M305.278,125.104h1.903v15.352h-1.903V125.104z"/>
	<path fill="#4C5D6B" d="M311.419,135.547c0.044,2.573,1.665,3.633,3.567,3.633c1.362,0,2.206-0.237,2.897-0.52l0.347,1.341
		c-0.671,0.303-1.838,0.67-3.503,0.67c-3.2,0-5.146-2.141-5.146-5.274c0-3.18,1.882-5.665,4.931-5.665
		c3.417,0,4.303,3.006,4.303,4.93c0,0.39-0.021,0.692-0.064,0.908L311.419,135.547z M316.976,134.185
		c0.021-1.189-0.497-3.093-2.616-3.093c-1.945,0-2.768,1.773-2.919,3.093H316.976z"/>
	<path fill="#4C5D6B" d="M326.836,135.547c0.044,2.573,1.665,3.633,3.568,3.633c1.361,0,2.205-0.237,2.896-0.52l0.347,1.341
		c-0.671,0.303-1.838,0.67-3.503,0.67c-3.2,0-5.146-2.141-5.146-5.274c0-3.18,1.882-5.665,4.931-5.665
		c3.417,0,4.303,3.006,4.303,4.93c0,0.39-0.021,0.692-0.064,0.908L326.836,135.547z M332.393,134.185
		c0.021-1.189-0.497-3.093-2.616-3.093c-1.945,0-2.768,1.773-2.919,3.093H332.393z"/>
	<path fill="#4C5D6B" d="M338.88,127.483v2.508h2.726v1.448h-2.726v5.644c0,1.298,0.368,2.032,1.428,2.032
		c0.52,0,0.821-0.043,1.104-0.13l0.086,1.448c-0.367,0.131-0.951,0.261-1.687,0.261c-0.887,0-1.601-0.304-2.055-0.801
		c-0.52-0.583-0.734-1.514-0.734-2.746v-5.708H335.4v-1.448h1.621v-1.925L338.88,127.483z"/>
	<path fill="#4C5D6B" d="M358.557,140.001c-0.671,0.346-2.076,0.692-3.85,0.692c-4.107,0-7.179-2.596-7.179-7.396
		c0-4.583,3.092-7.652,7.611-7.652c1.794,0,2.962,0.389,3.459,0.647l-0.477,1.535c-0.691-0.346-1.708-0.605-2.919-0.605
		c-3.416,0-5.687,2.185-5.687,6.012c0,3.589,2.054,5.858,5.578,5.858c1.168,0,2.335-0.236,3.092-0.604L358.557,140.001z"/>
	<path fill="#4C5D6B" d="M364.85,140.694c-2.812,0-5.018-2.076-5.018-5.384c0-3.504,2.313-5.559,5.189-5.559
		c3.006,0,5.038,2.186,5.038,5.362c0,3.893-2.703,5.579-5.189,5.579L364.85,140.694L364.85,140.694z M364.914,139.265
		c1.816,0,3.18-1.707,3.18-4.086c0-1.772-0.888-4-3.136-4c-2.228,0-3.2,2.075-3.2,4.064c0,2.292,1.298,4.021,3.136,4.021
		L364.914,139.265L364.914,139.265z"/>
	<path fill="#4C5D6B" d="M381.434,138.92c0,2.422-0.497,3.87-1.491,4.8c-1.038,0.931-2.509,1.254-3.827,1.254
		c-1.254,0-2.638-0.303-3.48-0.863l0.476-1.472c0.692,0.454,1.773,0.845,3.07,0.845c1.945,0,3.373-1.018,3.373-3.677v-1.146h-0.043
		c-0.562,0.974-1.708,1.752-3.33,1.752c-2.596,0-4.454-2.206-4.454-5.125c0-3.546,2.312-5.535,4.734-5.535
		c1.816,0,2.789,0.93,3.266,1.795h0.044l0.063-1.557h1.688c-0.064,0.734-0.087,1.578-0.087,2.854L381.434,138.92L381.434,138.92z
		 M379.531,134.098c0-0.303-0.021-0.584-0.107-0.844c-0.347-1.124-1.255-2.032-2.659-2.032c-1.816,0-3.113,1.535-3.113,3.979
		c0,2.032,1.06,3.762,3.092,3.762c1.189,0,2.249-0.733,2.638-1.968c0.108-0.302,0.151-0.67,0.151-1.016L379.531,134.098
		L379.531,134.098z"/>
	<path fill="#4C5D6B" d="M384.57,132.822c0-1.104-0.021-1.967-0.086-2.832h1.688l0.106,1.708h0.044
		c0.52-0.974,1.729-1.946,3.459-1.946c1.449,0,3.697,0.865,3.697,4.454v6.249h-1.902v-6.032c0-1.687-0.627-3.112-2.422-3.112
		c-1.232,0-2.205,0.886-2.552,1.944c-0.086,0.238-0.129,0.584-0.129,0.888v6.312h-1.903V132.822z"/>
	<path fill="#4C5D6B" d="M397.48,128.066c-0.713,0-1.189-0.562-1.189-1.232s0.498-1.21,1.232-1.21s1.211,0.54,1.211,1.21
		c0,0.671-0.477,1.232-1.232,1.232H397.48z M396.571,140.455V129.99h1.903v10.465H396.571z"/>
	<path fill="#4C5D6B" d="M403.924,127.483v2.508h2.725v1.448h-2.725v5.644c0,1.298,0.367,2.032,1.427,2.032
		c0.52,0,0.821-0.043,1.104-0.13l0.086,1.448c-0.366,0.131-0.95,0.261-1.687,0.261c-0.887,0-1.601-0.304-2.055-0.801
		c-0.52-0.583-0.734-1.514-0.734-2.746v-5.708h-1.621v-1.448h1.621v-1.925L403.924,127.483z"/>
	<path fill="#4C5D6B" d="M409.696,128.066c-0.713,0-1.188-0.562-1.188-1.232s0.497-1.21,1.231-1.21c0.735,0,1.211,0.54,1.211,1.21
		c0,0.671-0.476,1.232-1.231,1.232H409.696z M408.788,140.455V129.99h1.903v10.465H408.788z"/>
	<path fill="#4C5D6B" d="M414.583,129.99l2.055,5.858c0.347,0.974,0.627,1.839,0.844,2.703h0.063
		c0.238-0.864,0.541-1.729,0.888-2.703l2.032-5.858h1.988l-4.106,10.465h-1.816l-3.979-10.465H414.583z"/>
	<path fill="#4C5D6B" d="M425.093,135.547c0.044,2.573,1.665,3.633,3.567,3.633c1.361,0,2.205-0.237,2.896-0.52l0.347,1.341
		c-0.671,0.303-1.838,0.67-3.503,0.67c-3.2,0-5.146-2.141-5.146-5.274c0-3.18,1.883-5.665,4.931-5.665
		c3.417,0,4.303,3.006,4.303,4.93c0,0.39-0.021,0.692-0.064,0.908L425.093,135.547z M430.649,134.185
		c0.021-1.189-0.497-3.093-2.616-3.093c-1.945,0-2.768,1.773-2.919,3.093H430.649z"/>
</g>
</svg>
