<svg width="470" height="190" viewBox="0 0 470 190" fill="none" xmlns="http://www.w3.org/2000/svg">
<path d="M18.1816 171.818L30 175L18.1816 178.182L15 190L11.8184 178.182L0 175L11.8184 171.818L15 160L18.1816 171.818ZM58.1816 171.818L70 175L58.1816 178.182L55 190L51.8184 178.182L40 175L51.8184 171.818L55 160L58.1816 171.818ZM98.1816 171.818L110 175L98.1816 178.182L95 190L91.8184 178.182L80 175L91.8184 171.818L95 160L98.1816 171.818ZM138.182 171.818L150 175L138.182 178.182L135 190L131.818 178.182L120 175L131.818 171.818L135 160L138.182 171.818ZM178.182 171.818L190 175L178.182 178.182L175 190L171.818 178.182L160 175L171.818 171.818L175 160L178.182 171.818ZM218.182 171.818L230 175L218.182 178.182L215 190L211.818 178.182L200 175L211.818 171.818L215 160L218.182 171.818ZM258.182 171.818L270 175L258.182 178.182L255 190L251.818 178.182L240 175L251.818 171.818L255 160L258.182 171.818ZM298.182 171.818L310 175L298.182 178.182L295 190L291.818 178.182L280 175L291.818 171.818L295 160L298.182 171.818ZM338.182 171.818L350 175L338.182 178.182L335 190L331.818 178.182L320 175L331.818 171.818L335 160L338.182 171.818ZM378.182 171.818L390 175L378.182 178.182L375 190L371.818 178.182L360 175L371.818 171.818L375 160L378.182 171.818ZM418.182 171.818L430 175L418.182 178.182L415 190L411.818 178.182L400 175L411.818 171.818L415 160L418.182 171.818ZM458.182 171.818L470 175L458.182 178.182L455 190L451.818 178.182L440 175L451.818 171.818L455 160L458.182 171.818ZM18.1816 131.818L30 135L18.1816 138.182L15 150L11.8184 138.182L0 135L11.8184 131.818L15 120L18.1816 131.818ZM58.1816 131.818L70 135L58.1816 138.182L55 150L51.8184 138.182L40 135L51.8184 131.818L55 120L58.1816 131.818ZM98.1816 131.818L110 135L98.1816 138.182L95 150L91.8184 138.182L80 135L91.8184 131.818L95 120L98.1816 131.818ZM138.182 131.818L150 135L138.182 138.182L135 150L131.818 138.182L120 135L131.818 131.818L135 120L138.182 131.818ZM178.182 131.818L190 135L178.182 138.182L175 150L171.818 138.182L160 135L171.818 131.818L175 120L178.182 131.818ZM218.182 131.818L230 135L218.182 138.182L215 150L211.818 138.182L200 135L211.818 131.818L215 120L218.182 131.818ZM258.182 131.818L270 135L258.182 138.182L255 150L251.818 138.182L240 135L251.818 131.818L255 120L258.182 131.818ZM298.182 131.818L310 135L298.182 138.182L295 150L291.818 138.182L280 135L291.818 131.818L295 120L298.182 131.818ZM338.182 131.818L350 135L338.182 138.182L335 150L331.818 138.182L320 135L331.818 131.818L335 120L338.182 131.818ZM378.182 131.818L390 135L378.182 138.182L375 150L371.818 138.182L360 135L371.818 131.818L375 120L378.182 131.818ZM418.182 131.818L430 135L418.182 138.182L415 150L411.818 138.182L400 135L411.818 131.818L415 120L418.182 131.818ZM458.182 131.818L470 135L458.182 138.182L455 150L451.818 138.182L440 135L451.818 131.818L455 120L458.182 131.818ZM18.1816 91.8184L30 95L18.1816 98.1816L15 110L11.8184 98.1816L0 95L11.8184 91.8184L15 80L18.1816 91.8184ZM58.1816 91.8184L70 95L58.1816 98.1816L55 110L51.8184 98.1816L40 95L51.8184 91.8184L55 80L58.1816 91.8184ZM98.1816 91.8184L110 95L98.1816 98.1816L95 110L91.8184 98.1816L80 95L91.8184 91.8184L95 80L98.1816 91.8184ZM138.182 91.8184L150 95L138.182 98.1816L135 110L131.818 98.1816L120 95L131.818 91.8184L135 80L138.182 91.8184ZM178.182 91.8184L190 95L178.182 98.1816L175 110L171.818 98.1816L160 95L171.818 91.8184L175 80L178.182 91.8184ZM218.182 91.8184L230 95L218.182 98.1816L215 110L211.818 98.1816L200 95L211.818 91.8184L215 80L218.182 91.8184ZM258.182 91.8184L270 95L258.182 98.1816L255 110L251.818 98.1816L240 95L251.818 91.8184L255 80L258.182 91.8184ZM298.182 91.8184L310 95L298.182 98.1816L295 110L291.818 98.1816L280 95L291.818 91.8184L295 80L298.182 91.8184ZM338.182 91.8184L350 95L338.182 98.1816L335 110L331.818 98.1816L320 95L331.818 91.8184L335 80L338.182 91.8184ZM378.182 91.8184L390 95L378.182 98.1816L375 110L371.818 98.1816L360 95L371.818 91.8184L375 80L378.182 91.8184ZM418.182 91.8184L430 95L418.182 98.1816L415 110L411.818 98.1816L400 95L411.818 91.8184L415 80L418.182 91.8184ZM458.182 91.8184L470 95L458.182 98.1816L455 110L451.818 98.1816L440 95L451.818 91.8184L455 80L458.182 91.8184ZM18.1816 51.8184L30 55L18.1816 58.1816L15 70L11.8184 58.1816L0 55L11.8184 51.8184L15 40L18.1816 51.8184ZM58.1816 51.8184L70 55L58.1816 58.1816L55 70L51.8184 58.1816L40 55L51.8184 51.8184L55 40L58.1816 51.8184ZM98.1816 51.8184L110 55L98.1816 58.1816L95 70L91.8184 58.1816L80 55L91.8184 51.8184L95 40L98.1816 51.8184ZM138.182 51.8184L150 55L138.182 58.1816L135 70L131.818 58.1816L120 55L131.818 51.8184L135 40L138.182 51.8184ZM178.182 51.8184L190 55L178.182 58.1816L175 70L171.818 58.1816L160 55L171.818 51.8184L175 40L178.182 51.8184ZM218.182 51.8184L230 55L218.182 58.1816L215 70L211.818 58.1816L200 55L211.818 51.8184L215 40L218.182 51.8184ZM258.182 51.8184L270 55L258.182 58.1816L255 70L251.818 58.1816L240 55L251.818 51.8184L255 40L258.182 51.8184ZM298.182 51.8184L310 55L298.182 58.1816L295 70L291.818 58.1816L280 55L291.818 51.8184L295 40L298.182 51.8184ZM338.182 51.8184L350 55L338.182 58.1816L335 70L331.818 58.1816L320 55L331.818 51.8184L335 40L338.182 51.8184ZM378.182 51.8184L390 55L378.182 58.1816L375 70L371.818 58.1816L360 55L371.818 51.8184L375 40L378.182 51.8184ZM418.182 51.8184L430 55L418.182 58.1816L415 70L411.818 58.1816L400 55L411.818 51.8184L415 40L418.182 51.8184ZM458.182 51.8184L470 55L458.182 58.1816L455 70L451.818 58.1816L440 55L451.818 51.8184L455 40L458.182 51.8184ZM18.1816 11.8184L30 15L18.1816 18.1816L15 30L11.8184 18.1816L0 15L11.8184 11.8184L15 0L18.1816 11.8184ZM58.1816 11.8184L70 15L58.1816 18.1816L55 30L51.8184 18.1816L40 15L51.8184 11.8184L55 0L58.1816 11.8184ZM98.1816 11.8184L110 15L98.1816 18.1816L95 30L91.8184 18.1816L80 15L91.8184 11.8184L95 0L98.1816 11.8184ZM138.182 11.8184L150 15L138.182 18.1816L135 30L131.818 18.1816L120 15L131.818 11.8184L135 0L138.182 11.8184ZM178.182 11.8184L190 15L178.182 18.1816L175 30L171.818 18.1816L160 15L171.818 11.8184L175 0L178.182 11.8184ZM218.182 11.8184L230 15L218.182 18.1816L215 30L211.818 18.1816L200 15L211.818 11.8184L215 0L218.182 11.8184ZM258.182 11.8184L270 15L258.182 18.1816L255 30L251.818 18.1816L240 15L251.818 11.8184L255 0L258.182 11.8184ZM298.182 11.8184L310 15L298.182 18.1816L295 30L291.818 18.1816L280 15L291.818 11.8184L295 0L298.182 11.8184ZM338.182 11.8184L350 15L338.182 18.1816L335 30L331.818 18.1816L320 15L331.818 11.8184L335 0L338.182 11.8184ZM378.182 11.8184L390 15L378.182 18.1816L375 30L371.818 18.1816L360 15L371.818 11.8184L375 0L378.182 11.8184ZM418.182 11.8184L430 15L418.182 18.1816L415 30L411.818 18.1816L400 15L411.818 11.8184L415 0L418.182 11.8184ZM458.182 11.8184L470 15L458.182 18.1816L455 30L451.818 18.1816L440 15L451.818 11.8184L455 0L458.182 11.8184Z" fill="url(#paint0_linear_46_57)"/>
<defs>
<linearGradient id="paint0_linear_46_57" x1="470" y1="60.0206" x2="21" y2="16.5" gradientUnits="userSpaceOnUse">
<stop stop-color="#43D780" stop-opacity="0"/>
<stop offset="1" stop-color="#40D67E"/>
</linearGradient>
</defs>
</svg>
