<svg width="299" height="470" viewBox="0 0 299 470" fill="none" xmlns="http://www.w3.org/2000/svg">
<path d="M18.1816 451.818L30 455L18.1816 458.182L15 470L11.8184 458.182L0 455L11.8184 451.818L15 440L18.1816 451.818ZM58.1816 451.818L70 455L58.1816 458.182L55 470L51.8184 458.182L40 455L51.8184 451.818L55 440L58.1816 451.818ZM98.1816 451.818L110 455L98.1816 458.182L95 470L91.8184 458.182L80 455L91.8184 451.818L95 440L98.1816 451.818ZM138.182 451.818L150 455L138.182 458.182L135 470L131.818 458.182L120 455L131.818 451.818L135 440L138.182 451.818ZM178.182 451.818L190 455L178.182 458.182L175 470L171.818 458.182L160 455L171.818 451.818L175 440L178.182 451.818ZM218.182 451.818L230 455L218.182 458.182L215 470L211.818 458.182L200 455L211.818 451.818L215 440L218.182 451.818ZM258.182 451.818L270 455L258.182 458.182L255 470L251.818 458.182L240 455L251.818 451.818L255 440L258.182 451.818ZM298.182 451.818L310 455L298.182 458.182L295 470L291.818 458.182L280 455L291.818 451.818L295 440L298.182 451.818ZM18.1816 411.818L30 415L18.1816 418.182L15 430L11.8184 418.182L0 415L11.8184 411.818L15 400L18.1816 411.818ZM58.1816 411.818L70 415L58.1816 418.182L55 430L51.8184 418.182L40 415L51.8184 411.818L55 400L58.1816 411.818ZM98.1816 411.818L110 415L98.1816 418.182L95 430L91.8184 418.182L80 415L91.8184 411.818L95 400L98.1816 411.818ZM138.182 411.818L150 415L138.182 418.182L135 430L131.818 418.182L120 415L131.818 411.818L135 400L138.182 411.818ZM178.182 411.818L190 415L178.182 418.182L175 430L171.818 418.182L160 415L171.818 411.818L175 400L178.182 411.818ZM218.182 411.818L230 415L218.182 418.182L215 430L211.818 418.182L200 415L211.818 411.818L215 400L218.182 411.818ZM258.182 411.818L270 415L258.182 418.182L255 430L251.818 418.182L240 415L251.818 411.818L255 400L258.182 411.818ZM298.182 411.818L310 415L298.182 418.182L295 430L291.818 418.182L280 415L291.818 411.818L295 400L298.182 411.818ZM18.1816 371.818L30 375L18.1816 378.182L15 390L11.8184 378.182L0 375L11.8184 371.818L15 360L18.1816 371.818ZM58.1816 371.818L70 375L58.1816 378.182L55 390L51.8184 378.182L40 375L51.8184 371.818L55 360L58.1816 371.818ZM98.1816 371.818L110 375L98.1816 378.182L95 390L91.8184 378.182L80 375L91.8184 371.818L95 360L98.1816 371.818ZM138.182 371.818L150 375L138.182 378.182L135 390L131.818 378.182L120 375L131.818 371.818L135 360L138.182 371.818ZM178.182 371.818L190 375L178.182 378.182L175 390L171.818 378.182L160 375L171.818 371.818L175 360L178.182 371.818ZM218.182 371.818L230 375L218.182 378.182L215 390L211.818 378.182L200 375L211.818 371.818L215 360L218.182 371.818ZM258.182 371.818L270 375L258.182 378.182L255 390L251.818 378.182L240 375L251.818 371.818L255 360L258.182 371.818ZM298.182 371.818L310 375L298.182 378.182L295 390L291.818 378.182L280 375L291.818 371.818L295 360L298.182 371.818ZM18.1816 331.818L30 335L18.1816 338.182L15 350L11.8184 338.182L0 335L11.8184 331.818L15 320L18.1816 331.818ZM58.1816 331.818L70 335L58.1816 338.182L55 350L51.8184 338.182L40 335L51.8184 331.818L55 320L58.1816 331.818ZM98.1816 331.818L110 335L98.1816 338.182L95 350L91.8184 338.182L80 335L91.8184 331.818L95 320L98.1816 331.818ZM138.182 331.818L150 335L138.182 338.182L135 350L131.818 338.182L120 335L131.818 331.818L135 320L138.182 331.818ZM178.182 331.818L190 335L178.182 338.182L175 350L171.818 338.182L160 335L171.818 331.818L175 320L178.182 331.818ZM218.182 331.818L230 335L218.182 338.182L215 350L211.818 338.182L200 335L211.818 331.818L215 320L218.182 331.818ZM258.182 331.818L270 335L258.182 338.182L255 350L251.818 338.182L240 335L251.818 331.818L255 320L258.182 331.818ZM298.182 331.818L310 335L298.182 338.182L295 350L291.818 338.182L280 335L291.818 331.818L295 320L298.182 331.818ZM18.1816 291.818L30 295L18.1816 298.182L15 310L11.8184 298.182L0 295L11.8184 291.818L15 280L18.1816 291.818ZM58.1816 291.818L70 295L58.1816 298.182L55 310L51.8184 298.182L40 295L51.8184 291.818L55 280L58.1816 291.818ZM98.1816 291.818L110 295L98.1816 298.182L95 310L91.8184 298.182L80 295L91.8184 291.818L95 280L98.1816 291.818ZM138.182 291.818L150 295L138.182 298.182L135 310L131.818 298.182L120 295L131.818 291.818L135 280L138.182 291.818ZM178.182 291.818L190 295L178.182 298.182L175 310L171.818 298.182L160 295L171.818 291.818L175 280L178.182 291.818ZM218.182 291.818L230 295L218.182 298.182L215 310L211.818 298.182L200 295L211.818 291.818L215 280L218.182 291.818ZM258.182 291.818L270 295L258.182 298.182L255 310L251.818 298.182L240 295L251.818 291.818L255 280L258.182 291.818ZM298.182 291.818L310 295L298.182 298.182L295 310L291.818 298.182L280 295L291.818 291.818L295 280L298.182 291.818ZM18.1816 251.818L30 255L18.1816 258.182L15 270L11.8184 258.182L0 255L11.8184 251.818L15 240L18.1816 251.818ZM58.1816 251.818L70 255L58.1816 258.182L55 270L51.8184 258.182L40 255L51.8184 251.818L55 240L58.1816 251.818ZM98.1816 251.818L110 255L98.1816 258.182L95 270L91.8184 258.182L80 255L91.8184 251.818L95 240L98.1816 251.818ZM138.182 251.818L150 255L138.182 258.182L135 270L131.818 258.182L120 255L131.818 251.818L135 240L138.182 251.818ZM178.182 251.818L190 255L178.182 258.182L175 270L171.818 258.182L160 255L171.818 251.818L175 240L178.182 251.818ZM218.182 251.818L230 255L218.182 258.182L215 270L211.818 258.182L200 255L211.818 251.818L215 240L218.182 251.818ZM258.182 251.818L270 255L258.182 258.182L255 270L251.818 258.182L240 255L251.818 251.818L255 240L258.182 251.818ZM298.182 251.818L310 255L298.182 258.182L295 270L291.818 258.182L280 255L291.818 251.818L295 240L298.182 251.818ZM18.1816 211.818L30 215L18.1816 218.182L15 230L11.8184 218.182L0 215L11.8184 211.818L15 200L18.1816 211.818ZM58.1816 211.818L70 215L58.1816 218.182L55 230L51.8184 218.182L40 215L51.8184 211.818L55 200L58.1816 211.818ZM98.1816 211.818L110 215L98.1816 218.182L95 230L91.8184 218.182L80 215L91.8184 211.818L95 200L98.1816 211.818ZM138.182 211.818L150 215L138.182 218.182L135 230L131.818 218.182L120 215L131.818 211.818L135 200L138.182 211.818ZM178.182 211.818L190 215L178.182 218.182L175 230L171.818 218.182L160 215L171.818 211.818L175 200L178.182 211.818ZM218.182 211.818L230 215L218.182 218.182L215 230L211.818 218.182L200 215L211.818 211.818L215 200L218.182 211.818ZM258.182 211.818L270 215L258.182 218.182L255 230L251.818 218.182L240 215L251.818 211.818L255 200L258.182 211.818ZM298.182 211.818L310 215L298.182 218.182L295 230L291.818 218.182L280 215L291.818 211.818L295 200L298.182 211.818ZM18.1816 171.818L30 175L18.1816 178.182L15 190L11.8184 178.182L0 175L11.8184 171.818L15 160L18.1816 171.818ZM58.1816 171.818L70 175L58.1816 178.182L55 190L51.8184 178.182L40 175L51.8184 171.818L55 160L58.1816 171.818ZM98.1816 171.818L110 175L98.1816 178.182L95 190L91.8184 178.182L80 175L91.8184 171.818L95 160L98.1816 171.818ZM138.182 171.818L150 175L138.182 178.182L135 190L131.818 178.182L120 175L131.818 171.818L135 160L138.182 171.818ZM178.182 171.818L190 175L178.182 178.182L175 190L171.818 178.182L160 175L171.818 171.818L175 160L178.182 171.818ZM218.182 171.818L230 175L218.182 178.182L215 190L211.818 178.182L200 175L211.818 171.818L215 160L218.182 171.818ZM258.182 171.818L270 175L258.182 178.182L255 190L251.818 178.182L240 175L251.818 171.818L255 160L258.182 171.818ZM298.182 171.818L310 175L298.182 178.182L295 190L291.818 178.182L280 175L291.818 171.818L295 160L298.182 171.818ZM18.1816 131.818L30 135L18.1816 138.182L15 150L11.8184 138.182L0 135L11.8184 131.818L15 120L18.1816 131.818ZM58.1816 131.818L70 135L58.1816 138.182L55 150L51.8184 138.182L40 135L51.8184 131.818L55 120L58.1816 131.818ZM98.1816 131.818L110 135L98.1816 138.182L95 150L91.8184 138.182L80 135L91.8184 131.818L95 120L98.1816 131.818ZM138.182 131.818L150 135L138.182 138.182L135 150L131.818 138.182L120 135L131.818 131.818L135 120L138.182 131.818ZM178.182 131.818L190 135L178.182 138.182L175 150L171.818 138.182L160 135L171.818 131.818L175 120L178.182 131.818ZM218.182 131.818L230 135L218.182 138.182L215 150L211.818 138.182L200 135L211.818 131.818L215 120L218.182 131.818ZM258.182 131.818L270 135L258.182 138.182L255 150L251.818 138.182L240 135L251.818 131.818L255 120L258.182 131.818ZM298.182 131.818L310 135L298.182 138.182L295 150L291.818 138.182L280 135L291.818 131.818L295 120L298.182 131.818ZM18.1816 91.8184L30 95L18.1816 98.1816L15 110L11.8184 98.1816L0 95L11.8184 91.8184L15 80L18.1816 91.8184ZM58.1816 91.8184L70 95L58.1816 98.1816L55 110L51.8184 98.1816L40 95L51.8184 91.8184L55 80L58.1816 91.8184ZM98.1816 91.8184L110 95L98.1816 98.1816L95 110L91.8184 98.1816L80 95L91.8184 91.8184L95 80L98.1816 91.8184ZM138.182 91.8184L150 95L138.182 98.1816L135 110L131.818 98.1816L120 95L131.818 91.8184L135 80L138.182 91.8184ZM178.182 91.8184L190 95L178.182 98.1816L175 110L171.818 98.1816L160 95L171.818 91.8184L175 80L178.182 91.8184ZM218.182 91.8184L230 95L218.182 98.1816L215 110L211.818 98.1816L200 95L211.818 91.8184L215 80L218.182 91.8184ZM258.182 91.8184L270 95L258.182 98.1816L255 110L251.818 98.1816L240 95L251.818 91.8184L255 80L258.182 91.8184ZM298.182 91.8184L310 95L298.182 98.1816L295 110L291.818 98.1816L280 95L291.818 91.8184L295 80L298.182 91.8184ZM18.1816 51.8184L30 55L18.1816 58.1816L15 70L11.8184 58.1816L0 55L11.8184 51.8184L15 40L18.1816 51.8184ZM58.1816 51.8184L70 55L58.1816 58.1816L55 70L51.8184 58.1816L40 55L51.8184 51.8184L55 40L58.1816 51.8184ZM98.1816 51.8184L110 55L98.1816 58.1816L95 70L91.8184 58.1816L80 55L91.8184 51.8184L95 40L98.1816 51.8184ZM138.182 51.8184L150 55L138.182 58.1816L135 70L131.818 58.1816L120 55L131.818 51.8184L135 40L138.182 51.8184ZM178.182 51.8184L190 55L178.182 58.1816L175 70L171.818 58.1816L160 55L171.818 51.8184L175 40L178.182 51.8184ZM218.182 51.8184L230 55L218.182 58.1816L215 70L211.818 58.1816L200 55L211.818 51.8184L215 40L218.182 51.8184ZM258.182 51.8184L270 55L258.182 58.1816L255 70L251.818 58.1816L240 55L251.818 51.8184L255 40L258.182 51.8184ZM298.182 51.8184L310 55L298.182 58.1816L295 70L291.818 58.1816L280 55L291.818 51.8184L295 40L298.182 51.8184ZM18.1816 11.8184L30 15L18.1816 18.1816L15 30L11.8184 18.1816L0 15L11.8184 11.8184L15 0L18.1816 11.8184ZM58.1816 11.8184L70 15L58.1816 18.1816L55 30L51.8184 18.1816L40 15L51.8184 11.8184L55 0L58.1816 11.8184ZM98.1816 11.8184L110 15L98.1816 18.1816L95 30L91.8184 18.1816L80 15L91.8184 11.8184L95 0L98.1816 11.8184ZM138.182 11.8184L150 15L138.182 18.1816L135 30L131.818 18.1816L120 15L131.818 11.8184L135 0L138.182 11.8184ZM178.182 11.8184L190 15L178.182 18.1816L175 30L171.818 18.1816L160 15L171.818 11.8184L175 0L178.182 11.8184ZM218.182 11.8184L230 15L218.182 18.1816L215 30L211.818 18.1816L200 15L211.818 11.8184L215 0L218.182 11.8184ZM258.182 11.8184L270 15L258.182 18.1816L255 30L251.818 18.1816L240 15L251.818 11.8184L255 0L258.182 11.8184ZM298.182 11.8184L310 15L298.182 18.1816L295 30L291.818 18.1816L280 15L291.818 11.8184L295 0L298.182 11.8184Z" fill="url(#paint0_linear_91_4)"/>
<defs>
<linearGradient id="paint0_linear_91_4" x1="155" y1="80" x2="155" y2="421.5" gradientUnits="userSpaceOnUse">
<stop offset="0.365385" stop-color="#43D780"/>
<stop offset="1" stop-color="#43D780" stop-opacity="0"/>
</linearGradient>
</defs>
</svg>
